<svg width="115" height="73" viewBox="0 0 115 73" fill="none" xmlns="http://www.w3.org/2000/svg">
<path d="M68.24 36.4C70.9333 36.4 73.0667 37.1867 74.64 38.76C76.2133 40.3067 77 42.64 77 45.76V58H72V46.4C72 44.5333 71.5867 43.1333 70.76 42.2C69.9333 41.24 68.7467 40.76 67.2 40.76C65.52 40.76 64.1733 41.32 63.16 42.44C62.1467 43.5333 61.64 45.1067 61.64 47.16V58H56.64V46.4C56.64 44.5333 56.2267 43.1333 55.4 42.2C54.5733 41.24 53.3867 40.76 51.84 40.76C50.1333 40.76 48.7733 41.3067 47.76 42.4C46.7733 43.4933 46.28 45.08 46.28 47.16V58H41.28V36.64H46.04V39.36C46.84 38.4 47.84 37.6667 49.04 37.16C50.24 36.6533 51.5733 36.4 53.04 36.4C54.64 36.4 56.0533 36.7067 57.28 37.32C58.5333 37.9067 59.52 38.7867 60.24 39.96C61.12 38.84 62.2533 37.9733 63.64 37.36C65.0267 36.72 66.56 36.4 68.24 36.4Z" fill="#838383"/>
<path d="M45.04 16L26.74 58H19.06L0.7 16H9.16L23.14 48.4L37.24 16H45.04Z" fill="#4A4A4A"/>
<path d="M114.04 16L95.74 58H88.06L69.7 16H78.16L92.14 48.4L106.24 16H114.04Z" fill="#4A4A4A"/>
</svg>
