<svg width="249" height="49" viewBox="0 0 249 49" fill="none" xmlns="http://www.w3.org/2000/svg">
<path d="M29.52 11L17.24 39H13.28L0.96 11H5.28L15.36 34L25.52 11H29.52ZM36.5697 17.8H40.4097V39H36.5697V17.8ZM38.4897 13.72C37.743 13.72 37.1164 13.48 36.6097 13C36.1297 12.52 35.8897 11.9333 35.8897 11.24C35.8897 10.5467 36.1297 9.96 36.6097 9.48C37.1164 8.97333 37.743 8.72 38.4897 8.72C39.2364 8.72 39.8497 8.96 40.3297 9.44C40.8364 9.89333 41.0897 10.4667 41.0897 11.16C41.0897 11.88 40.8364 12.4933 40.3297 13C39.8497 13.48 39.2364 13.72 38.4897 13.72ZM76.3091 11L64.0291 39H60.0691L47.7491 11H52.0691L62.1491 34L72.3091 11H76.3091ZM89.4381 17.6C92.3715 17.6 94.6115 18.32 96.1581 19.76C97.7315 21.2 98.5181 23.3467 98.5181 26.2V39H94.8781V36.2C94.2381 37.1867 93.3181 37.9467 92.1181 38.48C90.9448 38.9867 89.5448 39.24 87.9181 39.24C85.5448 39.24 83.6381 38.6667 82.1981 37.52C80.7848 36.3733 80.0781 34.8667 80.0781 33C80.0781 31.1333 80.7581 29.64 82.1181 28.52C83.4781 27.3733 85.6381 26.8 88.5981 26.8H94.6781V26.04C94.6781 24.3867 94.1981 23.12 93.2381 22.24C92.2781 21.36 90.8648 20.92 88.9981 20.92C87.7448 20.92 86.5181 21.1333 85.3181 21.56C84.1181 21.96 83.1048 22.5067 82.2781 23.2L80.6781 20.32C81.7715 19.44 83.0781 18.7733 84.5981 18.32C86.1181 17.84 87.7315 17.6 89.4381 17.6ZM88.5581 36.28C90.0248 36.28 91.2915 35.96 92.3581 35.32C93.4248 34.6533 94.1981 33.72 94.6781 32.52V29.56H88.7581C85.5048 29.56 83.8781 30.6533 83.8781 32.84C83.8781 33.9067 84.2915 34.7467 85.1181 35.36C85.9448 35.9733 87.0915 36.28 88.5581 36.28ZM109.624 9.32H113.464V39H109.624V9.32ZM144.796 9.32V39H141.116V35.64C140.263 36.8133 139.183 37.7067 137.876 38.32C136.57 38.9333 135.13 39.24 133.556 39.24C131.503 39.24 129.663 38.7867 128.036 37.88C126.41 36.9733 125.13 35.7067 124.196 34.08C123.29 32.4267 122.836 30.5333 122.836 28.4C122.836 26.2667 123.29 24.3867 124.196 22.76C125.13 21.1333 126.41 19.8667 128.036 18.96C129.663 18.0533 131.503 17.6 133.556 17.6C135.076 17.6 136.476 17.8933 137.756 18.48C139.036 19.04 140.103 19.88 140.956 21V9.32H144.796ZM133.876 35.88C135.21 35.88 136.423 35.5733 137.516 34.96C138.61 34.32 139.463 33.44 140.076 32.32C140.69 31.1733 140.996 29.8667 140.996 28.4C140.996 26.9333 140.69 25.64 140.076 24.52C139.463 23.3733 138.61 22.4933 137.516 21.88C136.423 21.2667 135.21 20.96 133.876 20.96C132.516 20.96 131.29 21.2667 130.196 21.88C129.13 22.4933 128.276 23.3733 127.636 24.52C127.023 25.64 126.716 26.9333 126.716 28.4C126.716 29.8667 127.023 31.1733 127.636 32.32C128.276 33.44 129.13 34.32 130.196 34.96C131.29 35.5733 132.516 35.88 133.876 35.88ZM156.062 17.8H159.902V39H156.062V17.8ZM157.982 13.72C157.235 13.72 156.609 13.48 156.102 13C155.622 12.52 155.382 11.9333 155.382 11.24C155.382 10.5467 155.622 9.96 156.102 9.48C156.609 8.97333 157.235 8.72 157.982 8.72C158.729 8.72 159.342 8.96 159.822 9.44C160.329 9.89333 160.582 10.4667 160.582 11.16C160.582 11.88 160.329 12.4933 159.822 13C159.342 13.48 158.729 13.72 157.982 13.72Z" fill="#4A4A4A"/>
<path d="M185.04 39L185 31.58L181.4 37.62H179.64L176.06 31.78V39H172.4V25H175.66L180.58 33.08L185.38 25H188.64L188.68 39H185.04ZM203.722 35.94V39H192.482V25H203.462V28.06H196.402V30.42H202.622V33.38H196.402V35.94H203.722ZM217.68 31.7C218.48 31.98 219.106 32.42 219.56 33.02C220.013 33.6067 220.24 34.32 220.24 35.16C220.24 36.3867 219.746 37.3333 218.76 38C217.773 38.6667 216.346 39 214.48 39H206.92V25H214.08C215.866 25 217.226 25.3333 218.16 26C219.093 26.6533 219.56 27.54 219.56 28.66C219.56 29.3267 219.393 29.9267 219.06 30.46C218.74 30.98 218.28 31.3933 217.68 31.7ZM210.84 27.86V30.56H213.56C214.893 30.56 215.56 30.1067 215.56 29.2C215.56 28.3067 214.893 27.86 213.56 27.86H210.84ZM214.16 36.14C215.546 36.14 216.24 35.6667 216.24 34.72C216.24 33.7733 215.546 33.3 214.16 33.3H210.84V36.14H214.16ZM223.291 25H227.251V35.86H233.931V39H223.291V25ZM247.738 35.94V39H236.498V25H247.478V28.06H240.418V30.42H246.638V33.38H240.418V35.94H247.738Z" fill="#838383"/>
</svg>
