<?xml version="1.0" encoding="UTF-8" standalone="no"?>
<svg
   width="246.778"
   height="30.52"
   xmlns="http://www.w3.org/2000/svg">
   
  <path
     d="m 28.616914,2.5244974 -12.28,27.9999996 h -3.96 L 0.05691381,2.5244974 H 4.3769138 l 10.0800002,22.9999996 10.16,-22.9999996 z m 7.0497,6.8 h 3.84 V 30.524497 h -3.84 z m 1.92,-4.08 c -0.7467,0 -1.3733,-0.24 -1.88,-0.72 -0.48,-0.48 -0.72,-1.0667 -0.72,-1.76 0,-0.6933 0.24,-1.28 0.72,-1.76 0.5067,-0.50666998 1.1333,-0.75999998 1.88,-0.75999998 0.7467,0 1.36,0.24 1.84,0.72 0.5067,0.45332998 0.76,1.02669998 0.76,1.71999998 0,0.72 -0.2533,1.3333 -0.76,1.84 -0.48,0.48 -1.0933,0.72 -1.84,0.72 z m 37.8194,-2.72 -12.28,27.9999996 h -3.96 l -12.32,-27.9999996 h 4.32 l 10.08,22.9999996 10.16,-22.9999996 z m 13.129,6.6 c 2.9334,0 5.1734,0.72 6.72,2.1599996 1.5734,1.44 2.36,3.5867 2.36,6.44 v 12.8 h -3.64 v -2.8 c -0.64,0.9867 -1.56,1.7467 -2.76,2.28 -1.1733,0.5067 -2.5733,0.76 -4.2,0.76 -2.3733,0 -4.28,-0.5733 -5.72,-1.72 -1.4133,-1.1467 -2.12,-2.6533 -2.12,-4.52 0,-1.8667 0.68,-3.36 2.04,-4.48 1.36,-1.1467 3.52,-1.72 6.48,-1.72 h 6.08 v -0.76 c 0,-1.6533 -0.48,-2.92 -1.44,-3.8 -0.96,-0.88 -2.3733,-1.32 -4.24,-1.32 -1.2533,0 -2.48,0.2133 -3.68,0.64 -1.2,0.4 -2.2133,0.9467 -3.04,1.64 l -1.6,-2.88 c 1.0934,-0.88 2.4,-1.5467 3.92,-1.9999996 1.52,-0.48 3.1334,-0.72 4.84,-0.72 z m -0.88,18.6799996 c 1.4667,0 2.7334,-0.32 3.8,-0.96 1.0667,-0.6667 1.84,-1.6 2.32,-2.8 v -2.96 h -5.92 c -3.2533,0 -4.88,1.0933 -4.88,3.28 0,1.0667 0.4134,1.9067 1.24,2.52 0.8267,0.6133 1.9734,0.92 3.44,0.92 z M 108.72091,0.84449742 h 3.84 V 30.524497 h -3.84 z m 35.172,0 V 30.524497 h -3.68 v -3.36 c -0.853,1.1733 -1.933,2.0667 -3.24,2.68 -1.306,0.6133 -2.746,0.92 -4.32,0.92 -2.053,0 -3.893,-0.4533 -5.52,-1.36 -1.626,-0.9067 -2.906,-2.1733 -3.84,-3.8 -0.906,-1.6533 -1.36,-3.5467 -1.36,-5.68 0,-2.1333 0.454,-4.0133 1.36,-5.64 0.934,-1.6267 2.214,-2.8933 3.84,-3.8 1.627,-0.9066996 3.467,-1.3599996 5.52,-1.3599996 1.52,0 2.92,0.2933 4.2,0.8799996 1.28,0.56 2.347,1.4 3.2,2.52 V 0.84449742 Z m -10.92,26.55999958 c 1.334,0 2.547,-0.3067 3.64,-0.92 1.094,-0.64 1.947,-1.52 2.56,-2.64 0.614,-1.1467 0.92,-2.4533 0.92,-3.92 0,-1.4667 -0.306,-2.76 -0.92,-3.88 -0.613,-1.1467 -1.466,-2.0267 -2.56,-2.64 -1.093,-0.6133 -2.306,-0.92 -3.64,-0.92 -1.36,0 -2.586,0.3067 -3.68,0.92 -1.066,0.6133 -1.92,1.4933 -2.56,2.64 -0.613,1.12 -0.92,2.4133 -0.92,3.88 0,1.4667 0.307,2.7733 0.92,3.92 0.64,1.12 1.494,2 2.56,2.64 1.094,0.6133 2.32,0.92 3.68,0.92 z m 22.186,-18.0799996 h 3.84 V 30.524497 h -3.84 z m 1.92,-4.08 c -0.747,0 -1.373,-0.24 -1.88,-0.72 -0.48,-0.48 -0.72,-1.0667 -0.72,-1.76 0,-0.6933 0.24,-1.28 0.72,-1.76 0.507,-0.50666998 1.133,-0.75999998 1.88,-0.75999998 0.747,0 1.36,0.24 1.84,0.72 0.507,0.45332998 0.76,1.02669998 0.76,1.71999998 0,0.72 -0.253,1.3333 -0.76,1.84 -0.48,0.48 -1.093,0.72 -1.84,0.72 z"
     fill="#4a4a4a"
     id="path1"
   />
  <path
     d="m 184.13691,30.524497 -0.04,-7.42 -3.6,6.04 h -1.76 l -3.58,-5.84 v 7.22 h -3.66 v -14 h 3.26 l 4.92,8.08 4.8,-8.08 h 3.26 l 0.04,14 z m 18.682,-3.06 v 3.06 h -11.24 v -14 h 10.98 v 3.06 h -7.06 v 2.36 h 6.22 v 2.96 h -6.22 v 2.56 z m 13.958,-4.24 c 0.8,0.28 1.426,0.72 1.88,1.32 0.453,0.5867 0.68,1.3 0.68,2.14 0,1.2267 -0.494,2.1733 -1.48,2.84 -0.987,0.6667 -2.414,1 -4.28,1 h -7.56 v -14 h 7.16 c 1.786,0 3.146,0.3333 4.08,1 0.933,0.6533 1.4,1.54 1.4,2.66 0,0.6667 -0.167,1.2667 -0.5,1.8 -0.32,0.52 -0.78,0.9333 -1.38,1.24 z m -6.84,-3.84 v 2.7 h 2.72 c 1.333,0 2,-0.4533 2,-1.36 0,-0.8933 -0.667,-1.34 -2,-1.34 z m 3.32,8.28 c 1.386,0 2.08,-0.4733 2.08,-1.42 0,-0.9467 -0.694,-1.42 -2.08,-1.42 h -3.32 v 2.84 z m 9.131,-11.14 h 3.96 v 10.86 h 6.68 v 3.14 h -10.64 z m 24.447,10.94 v 3.06 h -11.24 v -14 h 10.98 v 3.06 h -7.06 v 2.36 h 6.22 v 2.96 h -6.22 v 2.56 z"
     fill="#838383"
     id="path2"/>
</svg>
